<?xml version="1.0" encoding="UTF-8"?>
<svg id="Capa_2" data-name="Capa 2" xmlns="http://www.w3.org/2000/svg" viewBox="0 0 1301.11 386.09">
  <defs>
    <style>
      .cls-1 {
        fill: #fff;
      }

      .cls-2 {
        fill: #ffcd0b;
      }
    </style>
  </defs>
  <g id="Capa_1-2" data-name="Capa 1">
    <g>
      <path class="cls-1" d="M32.16,372.69c-1.75,1.38-3.87,2.07-6.37,2.07-2.66,0-4.88-.6-6.68-1.8-1.8-1.2-3.14-3-4.03-5.39-.89-2.4-1.33-5.34-1.33-8.83s.48-6.5,1.45-8.87c.96-2.37,2.35-4.15,4.14-5.35,1.8-1.2,3.92-1.8,6.37-1.8s4.57.6,6.21,1.8c1.64,1.2,2.83,3.41,3.56,6.64l11.8-4.76c-.89-3.28-2.37-5.97-4.45-8.05-2.08-2.08-4.64-3.63-7.66-4.65-3.02-1.02-6.33-1.52-9.93-1.52-5.16,0-9.64,1.05-13.44,3.16-3.8,2.11-6.72,5.14-8.75,9.11-2.03,3.96-3.05,8.73-3.05,14.3s1.02,10.34,3.05,14.3c2.03,3.96,4.95,6.99,8.75,9.11,3.8,2.11,8.31,3.16,13.52,3.16,3.65,0,6.98-.54,10-1.6,3.02-1.07,5.63-2.76,7.82-5.08,2.19-2.32,3.78-5.27,4.77-8.87l-12.19-3.44c-.63,2.87-1.81,4.99-3.56,6.37Z"/>
      <path class="cls-1" d="M117.42,336.11c-3.78-2.11-8.27-3.16-13.48-3.16s-9.72,1.05-13.52,3.16c-3.81,2.11-6.72,5.14-8.75,9.11-2.03,3.96-3.05,8.73-3.05,14.3s1.02,10.34,3.05,14.3c2.03,3.96,4.95,6.99,8.75,9.11,3.8,2.11,8.31,3.16,13.52,3.16s9.7-1.06,13.48-3.16c3.78-2.11,6.68-5.15,8.72-9.11,2.03-3.96,3.05-8.73,3.05-14.3s-1.02-10.34-3.05-14.3c-2.03-3.96-4.94-7-8.72-9.11ZM114.1,368.35c-.89,2.4-2.18,4.2-3.87,5.39-1.69,1.2-3.79,1.8-6.29,1.8s-4.61-.6-6.33-1.8c-1.72-1.2-3.02-3-3.91-5.39-.89-2.4-1.33-5.34-1.33-8.83s.44-6.5,1.33-8.87c.89-2.37,2.19-4.15,3.91-5.35,1.72-1.2,3.83-1.8,6.33-1.8s4.6.6,6.29,1.8c1.69,1.2,2.98,2.98,3.87,5.35.89,2.37,1.33,5.32,1.33,8.87s-.44,6.43-1.33,8.83Z"/>
      <polygon class="cls-1" points="199.6 359.76 199.91 369.29 199.84 369.29 195.93 361.63 179.91 333.73 164.98 333.73 164.98 385.31 176.86 385.31 176.86 359.29 176.55 349.75 176.62 349.75 180.53 357.41 196.55 385.31 211.48 385.31 211.48 333.73 199.6 333.73 199.6 359.76"/>
      <polygon class="cls-1" points="262.91 364.37 284.16 364.37 284.16 354.6 262.91 354.6 262.91 344.12 289.63 344.12 289.63 333.73 249.46 333.73 249.46 385.31 290.65 385.31 290.65 374.92 262.91 374.92 262.91 364.37"/>
      <path class="cls-1" d="M354.86,372.69c-1.75,1.38-3.87,2.07-6.37,2.07-2.66,0-4.88-.6-6.68-1.8-1.8-1.2-3.14-3-4.02-5.39-.89-2.4-1.33-5.34-1.33-8.83s.48-6.5,1.45-8.87c.96-2.37,2.35-4.15,4.14-5.35,1.8-1.2,3.92-1.8,6.37-1.8s4.57.6,6.21,1.8c1.64,1.2,2.83,3.41,3.56,6.64l11.8-4.76c-.89-3.28-2.37-5.97-4.45-8.05-2.08-2.08-4.64-3.63-7.66-4.65-3.02-1.02-6.33-1.52-9.93-1.52-5.16,0-9.64,1.05-13.44,3.16-3.8,2.11-6.72,5.14-8.75,9.11-2.03,3.96-3.05,8.73-3.05,14.3s1.02,10.34,3.05,14.3c2.03,3.96,4.95,6.99,8.75,9.11,3.8,2.11,8.31,3.16,13.52,3.16,3.65,0,6.98-.54,10-1.6,3.02-1.07,5.63-2.76,7.81-5.08,2.19-2.32,3.78-5.27,4.77-8.87l-12.19-3.44c-.63,2.87-1.81,4.99-3.56,6.37Z"/>
      <polygon class="cls-1" points="400.93 344.12 417.81 344.12 417.81 385.31 431.25 385.31 431.25 344.12 448.05 344.12 448.05 333.73 400.93 333.73 400.93 344.12"/>
      <path class="cls-1" d="M488.54,333.73l-18.13,51.58h13.52l3.67-11.65h17.66l3.6,11.65h13.83l-18.05-51.58h-16.1ZM490.1,364.52l6.33-20.87,6.33,20.87h-12.66Z"/>
      <polygon class="cls-1" points="589.9 359.76 590.22 369.29 590.14 369.29 586.23 361.63 570.21 333.73 555.28 333.73 555.28 385.31 567.16 385.31 567.16 359.29 566.85 349.75 566.93 349.75 570.84 357.41 586.86 385.31 601.78 385.31 601.78 333.73 589.9 333.73 589.9 359.76"/>
      <path class="cls-1" d="M661.65,333.73h-21.88v51.58h21.88c8.07,0,14.26-2.24,18.56-6.72,4.3-4.48,6.45-10.83,6.45-19.07s-2.15-14.59-6.45-19.07c-4.3-4.48-10.49-6.72-18.56-6.72ZM669.89,371.2c-2.01,2.63-5.2,3.95-9.57,3.95h-7.11v-31.26h7.11c4.38,0,7.57,1.32,9.57,3.95,2.01,2.63,3.01,6.53,3.01,11.68s-1,9.06-3.01,11.68Z"/>
      <path class="cls-1" d="M759.07,336.11c-3.78-2.11-8.27-3.16-13.48-3.16s-9.72,1.05-13.52,3.16c-3.8,2.11-6.72,5.14-8.75,9.11-2.03,3.96-3.05,8.73-3.05,14.3s1.02,10.34,3.05,14.3c2.03,3.96,4.95,6.99,8.75,9.11,3.8,2.11,8.31,3.16,13.52,3.16s9.7-1.06,13.48-3.16c3.78-2.11,6.68-5.15,8.71-9.11,2.03-3.96,3.05-8.73,3.05-14.3s-1.02-10.34-3.05-14.3c-2.03-3.96-4.94-7-8.71-9.11ZM755.75,368.35c-.89,2.4-2.18,4.2-3.87,5.39-1.69,1.2-3.79,1.8-6.29,1.8s-4.61-.6-6.33-1.8c-1.72-1.2-3.02-3-3.91-5.39-.89-2.4-1.33-5.34-1.33-8.83s.44-6.5,1.33-8.87c.89-2.37,2.19-4.15,3.91-5.35,1.72-1.2,3.83-1.8,6.33-1.8s4.6.6,6.29,1.8c1.69,1.2,2.98,2.98,3.87,5.35.89,2.37,1.33,5.32,1.33,8.87s-.44,6.43-1.33,8.83Z"/>
      <path class="cls-1" d="M870.79,343.97c1.2-.41,2.76-.62,4.69-.62,3.28,0,6.21.59,8.79,1.76,2.58,1.17,4.99,2.93,7.23,5.28l6.49-8.68c-2.71-2.86-5.9-5.04-9.57-6.53-3.67-1.48-7.91-2.22-12.7-2.22s-8.62.73-11.96,2.19c-3.33,1.46-5.89,3.45-7.66,5.98-1.77,2.53-2.66,5.41-2.66,8.64,0,2.87.65,5.25,1.96,7.15,1.3,1.9,3.09,3.41,5.35,4.53,2.27,1.12,4.86,2.02,7.78,2.69l9.54,2.11c2.19.52,3.67,1.16,4.45,1.92.78.75,1.17,1.68,1.17,2.77,0,.99-.29,1.85-.86,2.58-.57.73-1.47,1.28-2.7,1.64-1.22.36-2.75.55-4.57.55-2.34,0-4.65-.34-6.92-1.01-2.27-.68-4.35-1.6-6.25-2.78-1.9-1.17-3.5-2.51-4.81-4.02l-6.49,8.98c1.72,1.83,3.83,3.44,6.33,4.85,2.5,1.41,5.31,2.49,8.44,3.25,3.13.75,6.41,1.13,9.85,1.13,4.22,0,7.97-.64,11.25-1.92,3.28-1.28,5.86-3.18,7.74-5.7,1.88-2.53,2.81-5.61,2.81-9.26s-1.2-6.85-3.6-9.14c-2.4-2.29-6.17-4.04-11.33-5.24l-8.68-1.95c-2.29-.52-3.95-1.16-4.96-1.92-1.02-.75-1.52-1.68-1.52-2.77,0-.94.26-1.77.78-2.5.52-.73,1.38-1.3,2.58-1.72Z"/>
      <path class="cls-1" d="M964.18,363.18c0,3.81-.79,6.66-2.38,8.54-1.59,1.88-4,2.82-7.23,2.82s-5.56-.94-7.15-2.82c-1.59-1.88-2.38-4.73-2.38-8.54v-31.75h-13.52v31.5c0,7.52,1.95,13.15,5.86,16.88,3.91,3.73,9.64,5.6,17.19,5.6s13.35-1.87,17.23-5.6c3.88-3.73,5.82-9.36,5.82-16.88v-31.5h-13.44v31.75Z"/>
      <polygon class="cls-1" points="1028.03 364.37 1049.29 364.37 1049.29 354.6 1028.03 354.6 1028.03 344.12 1054.76 344.12 1054.76 333.73 1014.59 333.73 1014.59 385.31 1055.78 385.31 1055.78 374.92 1028.03 374.92 1028.03 364.37"/>
      <g>
        <path class="cls-1" d="M1106.74,325.76c.47-.73,1.15-1.09,2.03-1.09.78,0,1.51.22,2.19.67.68.44,1.41.96,2.19,1.56.78.6,1.71,1.12,2.77,1.57,1.07.44,2.33.66,3.79.66,1.72,0,3.3-.46,4.73-1.37,1.43-.91,2.58-2.29,3.44-4.14.86-1.85,1.34-4.15,1.45-6.92h-7.5c-.16,1.46-.46,2.55-.9,3.28-.44.73-1.13,1.09-2.07,1.09-.73,0-1.42-.22-2.07-.67-.65-.44-1.34-.96-2.07-1.56-.73-.6-1.59-1.12-2.58-1.57-.99-.44-2.19-.66-3.59-.66-2.92,0-5.32,1.03-7.19,3.09-1.88,2.06-2.89,5.17-3.05,9.34h7.5c.16-1.46.47-2.55.94-3.28Z"/>
        <polygon class="cls-1" points="1125.1 359.76 1125.42 369.29 1125.34 369.29 1121.43 361.63 1105.41 333.73 1090.48 333.73 1090.48 385.31 1102.36 385.31 1102.36 359.29 1102.05 349.75 1102.13 349.75 1106.03 357.41 1122.05 385.31 1136.98 385.31 1136.98 333.73 1125.1 333.73 1125.1 359.76"/>
      </g>
      <path class="cls-1" d="M1211.58,336.11c-3.78-2.11-8.27-3.16-13.48-3.16s-9.72,1.05-13.52,3.16c-3.8,2.11-6.72,5.14-8.75,9.11-2.03,3.96-3.05,8.73-3.05,14.3s1.02,10.34,3.05,14.3c2.03,3.96,4.95,6.99,8.75,9.11,3.8,2.11,8.31,3.16,13.52,3.16s9.7-1.06,13.48-3.16c3.78-2.11,6.68-5.15,8.71-9.11,2.03-3.96,3.05-8.73,3.05-14.3s-1.02-10.34-3.05-14.3c-2.03-3.96-4.94-7-8.71-9.11ZM1208.26,368.35c-.89,2.4-2.18,4.2-3.87,5.39-1.69,1.2-3.79,1.8-6.29,1.8s-4.61-.6-6.33-1.8c-1.72-1.2-3.02-3-3.91-5.39-.89-2.4-1.33-5.34-1.33-8.83s.44-6.5,1.33-8.87c.89-2.37,2.19-4.15,3.91-5.35,1.72-1.2,3.83-1.8,6.33-1.8s4.6.6,6.29,1.8c1.69,1.2,2.98,2.98,3.87,5.35.89,2.37,1.33,5.32,1.33,8.87s-.44,6.43-1.33,8.83Z"/>
      <path class="cls-1" d="M1273.91,343.18c1.2-.41,2.76-.62,4.69-.62,3.28,0,6.21.59,8.79,1.76,2.58,1.17,4.99,2.93,7.23,5.28l6.49-8.68c-2.71-2.86-5.9-5.04-9.57-6.53-3.67-1.48-7.91-2.22-12.7-2.22s-8.62.73-11.96,2.19c-3.33,1.46-5.89,3.45-7.66,5.98-1.77,2.53-2.66,5.41-2.66,8.64,0,2.87.65,5.25,1.96,7.15,1.3,1.9,3.09,3.41,5.35,4.53,2.27,1.12,4.86,2.02,7.78,2.69l9.54,2.11c2.19.52,3.67,1.16,4.45,1.92.78.75,1.17,1.68,1.17,2.77,0,.99-.29,1.85-.86,2.58-.57.73-1.47,1.28-2.7,1.64-1.22.36-2.75.55-4.57.55-2.34,0-4.65-.34-6.92-1.01-2.27-.68-4.35-1.6-6.25-2.78-1.9-1.17-3.5-2.51-4.81-4.02l-6.49,8.98c1.72,1.83,3.83,3.44,6.33,4.85,2.5,1.41,5.32,2.49,8.44,3.25,3.13.75,6.41,1.13,9.85,1.13,4.22,0,7.97-.64,11.25-1.92,3.28-1.28,5.86-3.18,7.74-5.7,1.88-2.53,2.82-5.61,2.82-9.26s-1.2-6.85-3.6-9.14c-2.4-2.29-6.17-4.04-11.33-5.24l-8.67-1.95c-2.29-.52-3.95-1.16-4.96-1.92-1.02-.75-1.52-1.68-1.52-2.77,0-.94.26-1.77.78-2.5.52-.73,1.38-1.3,2.58-1.72Z"/>
      <polygon class="cls-2" points="1016.77 0 941.58 0 889.84 76.77 867.2 112.02 862.75 112.02 840.11 76.77 788.37 0 713.58 0 833.65 175.66 833.65 262.43 894.69 262.43 894.69 175.69 1016.77 0"/>
      <polygon class="cls-2" points="1181.93 0 1095.48 0 977.12 262.26 1044.98 262.26 1119.72 94.33 1136.28 53.63 1140.73 53.63 1157.29 94.33 1182.59 151.48 1139.11 151.48 1116.82 204.32 1205.98 204.32 1231.62 262.26 1301.11 262.26 1181.93 0"/>
      <path class="cls-1" d="M245.65,160.54h-33.39v6.6c0,20.69-7.12,36.88-21.16,48.14-14.17,11.36-35.11,17.12-62.22,17.12-20.48,0-38.15-3.88-52.53-11.54-14.29-7.61-25.25-19.01-32.58-33.87-7.39-14.98-11.14-33.74-11.14-55.77s3.75-41.1,11.13-55.96c7.34-14.75,18.3-26.08,32.58-33.69,14.37-7.65,32.05-11.53,52.53-11.53,27.11,0,48.05,5.76,62.22,17.12,14.04,11.26,21.16,27.45,21.16,48.14v6.6h33.39v-6.6c0-19.56-5.16-36.66-15.34-50.81-10.14-14.09-24.25-25.16-41.93-32.89C170.79,3.9,150.64,0,128.5,0c-24.97,0-47.41,5.44-66.69,16.17-19.31,10.75-34.6,26.14-45.47,45.73C5.5,81.46,0,104.78,0,131.22s5.5,49.76,16.34,69.31c10.86,19.6,26.16,34.99,45.47,45.73,19.27,10.73,41.71,16.17,66.69,16.17,22.15,0,42.3-3.9,59.89-11.59,17.68-7.73,31.78-18.86,41.93-33.09,10.18-14.27,15.33-31.3,15.33-50.61v-6.6Z"/>
      <polygon class="cls-1" points="722.64 234.79 564.18 234 564.18 0 532.7 0 532.7 262.49 722.64 263.35 722.64 234.79"/>
      <polygon class="cls-1" points="482.32 233.66 326.45 233.66 326.45 143.6 454.76 143.6 454.76 115.2 326.45 115.2 326.45 28.77 482.32 28.77 482.32 0 297.38 0 297.38 .54 297.38 28.77 297.38 115.2 297.38 143.6 297.38 233.66 297.38 251.09 297.38 262.43 482.32 262.43 482.32 233.66"/>
    </g>
  </g>
</svg>